<?xml version="1.0" encoding="UTF-8"?><svg id="Ebene_1" xmlns="http://www.w3.org/2000/svg" viewBox="0 0 1002.12 447.63"><defs><style>.cls-1{fill:#fff;}</style></defs><path class="cls-1" d="m400.96,153.91c-26.73-11.95-58.08.03-70.02,26.76-3.45,7.73-4.91,15.84-4.58,23.76.67-4.16,1.88-8.31,3.68-12.34,11.08-24.79,40.17-35.9,64.96-24.82,24.79,11.08,35.9,40.16,24.82,64.96-1.8,4.03-4.08,7.7-6.74,10.97,6.12-5.04,11.2-11.53,14.65-19.26,11.95-26.73-.03-58.08-26.76-70.02Z"/><path class="cls-1" d="m416.06,227.51c9.72-21.75-.03-47.27-21.78-56.99-6.29-2.81-12.89-3.99-19.34-3.73,3.39.54,6.76,1.53,10.04,2.99,20.18,9.02,29.22,32.69,20.2,52.86-9.02,20.18-32.69,29.22-52.86,20.2-3.28-1.47-6.27-3.32-8.93-5.49,4.1,4.98,9.38,9.11,15.67,11.92,21.75,9.72,47.27-.03,56.99-21.78Z"/><path class="cls-1" d="m346.27,179.64c-4.13,3.41-7.57,7.79-9.9,13.01-8.07,18.06.02,39.24,18.08,47.32s39.24-.02,47.32-18.08c2.33-5.22,3.31-10.7,3.1-16.06-.45,2.81-1.27,5.61-2.49,8.34-7.49,16.75-27.14,24.26-43.89,16.77s-24.26-27.14-16.77-43.89c1.22-2.72,2.76-5.2,4.56-7.41Z"/><path class="cls-1" d="m178.51,233.64c.06,6.94.33,13.95.72,16.68h17.89c-.19-9.61-.13-19.16-.13-28.77v-69.88h-18.54v44.59c0,28.72-9.04,41.07-30.29,41.07-17.71,0-23.58-12.96-23.58-27.87v-57.8h-18.54v61.2c0,28.76,16.17,40.18,37.09,40.18s30.45-8.22,35.38-19.41Z"/><path class="cls-1" d="m265.91,237.98c-21.35,0-33.03-16.45-33.03-37.01s12.2-37.03,32.96-37.03c18.43,0,26.16,10.06,29.57,19.24h18.54c-2.17-13.11-14.59-34.24-47.84-34.24s-52.22,24.34-52.22,52.36,16.89,51.75,51.96,51.75c28.02,0,43.53-15.75,48.36-33.59h-18.54c-4.96,11.17-13.8,18.52-29.75,18.52Z"/><path class="cls-1" d="m560.55,148.94c-19.43,0-28.65,10.36-33.92,18.9-4.3-11.1-14-18.9-30.28-18.9-17.32,0-26.87,9-31.87,17.48.07-5.17-.12-10.72-.58-14.75h-17.91c.19,8.51.19,16.95.19,25.46v73.19h18.42v-52.7c0-18.81,7.25-33.35,25.83-33.35,17.39,0,21.43,13.15,21.43,24.95v61.1h18.42v-54.09c0-21.29,10.21-31.96,25.9-31.96,17.58,0,21.3,14.25,21.3,25.75v60.3h18.35v-60.95c0-29.15-15.84-40.43-35.29-40.43Z"/><path class="cls-1" d="m720.65,199.28c0-28.57-19.39-50.34-45.97-50.34-20.63,0-32.16,9.4-37.95,19.71,0-7.48-.26-14.17-.65-16.99h-18.09c.19,8.19.19,16.44.19,24.62v104.51h18.54v-45.08c5.34,8.43,14.42,17.33,34.85,17.33,26.78,0,49.07-21.54,49.07-53.77Zm-51.84,38.06c-21.76,0-32.59-15.25-32.59-35.92s10.01-36.9,32.98-36.9,32.33,17.98,32.33,35.52c0,19.75-10.9,37.31-32.72,37.31Z"/><rect class="cls-1" x="737.51" y="103.77" width="18.54" height="146.56"/><path class="cls-1" d="m875.19,151.67h-19.26c-18.83,46.38-28.89,74.68-32.35,84.42h-.32c-2.95-8.34-14.34-36.03-35.28-84.42h-20.4l45.7,103.15-10.22,25.99h19.48s7.79-20.4,14-35.47l38.65-93.67Z"/><rect class="cls-1" x="875.53" y="229.38" width="20.56" height="20.94"/><path class="cls-1" d="m124.62,310.68c7.07,0,9.95,3.48,11.52,7.27h5.2c-1.41-5.91-6.31-11.46-16.67-11.46-11.46,0-18.64,8.49-18.64,18.74s6.47,18.64,18.39,18.64c10.25,0,14.75-5.1,16.77-11.26h-5.1c-1.97,4.14-4.65,7.02-11.41,7.02-8.33,0-13.28-6.41-13.28-14.55s5-14.39,13.23-14.39Z"/><path class="cls-1" d="m167.3,306.49c-11.52,0-18.94,8.59-18.94,18.54,0,10.56,7.22,18.84,18.79,18.84s18.89-8.69,18.89-18.79-7.27-18.59-18.74-18.59Zm0,33.13c-8.89,0-13.59-7.02-13.59-14.7s4.9-14.19,13.28-14.19c8.99,0,13.69,6.97,13.69,14.45s-4.6,14.44-13.38,14.44Z"/><path class="cls-1" d="m215.54,336.99h-.05c-1.06-3.33-7.17-18.03-12.12-29.75h-7.27v35.86h4.7v-14.55c0-6.06-.2-13.64-.5-17.78h.05c1.97,5.66,8.79,22.27,12.68,32.32h4.39c5.1-12.32,11.36-26.92,13.13-32.32h.05c-.2,3.69-.25,10.15-.25,16.87v15.46h4.95v-35.86h-7.32c-4.55,10.96-10.76,25.3-12.43,29.75Z"/><path class="cls-1" d="m264.37,307.24h-16.87v35.86h5.1v-14.34h11.92c7.98,0,12.83-3.94,12.83-10.96,0-5.96-4.09-10.56-12.98-10.56Zm-.56,17.22h-11.21v-12.98h11.21c5.66,0,8.38,2.32,8.38,6.36,0,5.2-3.43,6.62-8.38,6.62Z"/><polygon class="cls-1" points="290.97 307.24 285.92 307.24 285.92 343.1 311.83 343.1 312.59 338.81 290.97 338.81 290.97 307.24"/><rect class="cls-1" x="320.47" y="307.24" width="5.1" height="35.86"/><path class="cls-1" d="m348.71,307.24l-15.41,35.86h5.25l4.65-10.86h17.37l4.8,10.86h5.56l-16.06-35.86h-6.16Zm-3.94,20.66c3.64-8.54,6.06-14.7,6.82-17.02h.05c.81,2.43,2.88,7.12,7.27,17.02h-14.14Z"/><path class="cls-1" d="m406.27,320.73c0,5.81-.05,11.51.3,16.16h-.1c-2.02-3.69-13.59-18.44-21.67-29.65h-6.06v35.86h4.75v-14.65c0-6.36,0-11.42-.25-16.06h.1c2.58,4.19,16.62,23.54,21.97,30.71h5.71v-35.86h-4.75v13.49Z"/><path class="cls-1" d="m439.69,310.68c7.07,0,9.95,3.48,11.52,7.27h5.2c-1.41-5.91-6.31-11.46-16.67-11.46-11.47,0-18.64,8.49-18.64,18.74s6.46,18.64,18.39,18.64c10.25,0,14.75-5.1,16.77-11.26h-5.1c-1.97,4.14-4.65,7.02-11.41,7.02-8.33,0-13.28-6.41-13.28-14.55s5-14.39,13.23-14.39Z"/><polygon class="cls-1" points="470.99 326.39 492.51 326.39 492.51 322.09 470.99 322.09 470.99 311.49 493.62 311.49 493.62 307.24 465.89 307.24 465.89 343.1 494.02 343.1 494.73 338.81 470.99 338.81 470.99 326.39"/><polygon class="cls-1" points="517.16 311.54 530.85 311.54 530.85 343.1 535.95 343.1 535.95 311.54 549.59 311.54 549.59 307.24 517.16 307.24 517.16 311.54"/><polygon class="cls-1" points="584.01 321.74 562.45 321.74 562.45 307.24 557.35 307.24 557.35 343.1 562.45 343.1 562.45 326.03 584.01 326.03 584.01 343.1 589.12 343.1 589.12 307.24 584.01 307.24 584.01 321.74"/><path class="cls-1" d="m612.36,307.24l-15.41,35.86h5.25l4.65-10.86h17.38l4.8,10.86h5.56l-16.06-35.86h-6.16Zm-3.94,20.66c3.64-8.54,6.06-14.7,6.82-17.02h.05c.81,2.43,2.88,7.12,7.27,17.02h-14.14Z"/><polygon class="cls-1" points="633.1 311.54 646.79 311.54 646.79 343.1 651.89 343.1 651.89 311.54 665.53 311.54 665.53 307.24 633.1 307.24 633.1 311.54"/><path class="cls-1" d="m707.46,310.68c7.07,0,9.95,3.48,11.52,7.27h5.2c-1.41-5.91-6.31-11.46-16.67-11.46-11.47,0-18.64,8.49-18.64,18.74s6.46,18.64,18.38,18.64c10.25,0,14.75-5.1,16.77-11.26h-5.1c-1.97,4.14-4.65,7.02-11.41,7.02-8.33,0-13.28-6.41-13.28-14.55s5-14.39,13.23-14.39Z"/><polygon class="cls-1" points="738.71 307.24 733.66 307.24 733.66 343.1 759.57 343.1 760.33 338.81 738.71 338.81 738.71 307.24"/><rect class="cls-1" x="768.21" y="307.24" width="5.1" height="35.86"/><path class="cls-1" d="m801.93,310.68c7.07,0,9.95,3.48,11.52,7.27h5.2c-1.41-5.91-6.31-11.46-16.67-11.46-11.47,0-18.64,8.49-18.64,18.74s6.47,18.64,18.39,18.64c10.25,0,14.75-5.1,16.77-11.26h-5.1c-1.97,4.14-4.65,7.02-11.41,7.02-8.33,0-13.28-6.41-13.28-14.55s5-14.39,13.23-14.39Z"/><path class="cls-1" d="m860.86,307.24h-6.57c-6.77,5.76-15.61,12.98-21.06,17.68v-17.68h-5.1v35.86h5.1v-13.28l5.56-4.5,16.57,17.78h6.62l-19.34-20.51,18.23-15.35Z"/><path class="cls-1" d="m881.08,322.04c-8.18-1.36-9.65-3.23-9.65-6.16,0-3.59,3.33-5.36,8.48-5.36,7.58,0,9.09,3.23,9.85,5.71h5.1c-.4-3.64-3.13-9.75-14.8-9.75-7.83,0-13.79,3.59-13.79,9.9,0,4.9,2.58,8.28,13.33,10.1,9.29,1.57,11.26,3.74,11.26,7.27,0,3.33-2.73,6.06-9.8,6.06s-10.1-2.93-11.42-7.17h-5.2c1.21,6.62,6.26,11.21,16.26,11.21,10.81,0,15.35-4.9,15.35-10.61,0-5-2.07-8.99-15-11.21Z"/></svg>