<?xml version="1.0" encoding="UTF-8"?><svg id="Ebene_1" xmlns="http://www.w3.org/2000/svg" viewBox="0 0 1000.26 384.57"><path d="m399.09,153.91c-26.73-11.95-58.08.03-70.02,26.76-3.45,7.73-4.91,15.84-4.58,23.76.67-4.16,1.88-8.31,3.68-12.34,11.08-24.79,40.17-35.9,64.96-24.82,24.79,11.08,35.9,40.17,24.82,64.96-1.8,4.03-4.08,7.7-6.74,10.97,6.12-5.04,11.2-11.53,14.65-19.26,11.95-26.73-.03-58.08-26.76-70.02Z"/><path d="m392.42,170.52c-6.29-2.81-12.89-3.99-19.34-3.73,3.39.54,6.76,1.53,10.04,2.99,20.18,9.02,29.22,32.69,20.2,52.86-9.02,20.18-32.69,29.22-52.86,20.2-3.28-1.47-6.27-3.32-8.93-5.49,4.1,4.98,9.38,9.11,15.67,11.92,21.75,9.72,47.27-.03,56.99-21.78,9.72-21.75-.03-47.27-21.78-56.99Z"/><path d="m344.41,179.64c-4.13,3.41-7.57,7.79-9.9,13.01-8.07,18.06.02,39.24,18.08,47.32s39.24-.02,47.32-18.08c2.33-5.22,3.31-10.7,3.1-16.06-.45,2.81-1.27,5.62-2.49,8.34-7.49,16.75-27.14,24.26-43.89,16.77-16.75-7.49-24.26-27.14-16.77-43.89,1.22-2.72,2.76-5.2,4.56-7.41Z"/><path d="m195.13,221.55v-69.88h-18.54v44.59c0,28.72-9.04,41.07-30.29,41.07-17.71,0-23.58-12.96-23.58-27.87v-57.8h-18.54v61.2c0,28.76,16.17,40.18,37.09,40.18s30.45-8.22,35.38-19.41c.06,6.94.33,13.95.72,16.68h17.89c-.19-9.61-.13-19.16-.13-28.77Z"/><path d="m264.05,237.98c-21.35,0-33.03-16.45-33.03-37.01s12.2-37.03,32.96-37.03c18.43,0,26.16,10.06,29.57,19.24h18.54c-2.17-13.11-14.59-34.24-47.84-34.24s-52.22,24.34-52.22,52.36,16.89,51.75,51.96,51.75c28.02,0,43.53-15.75,48.36-33.59h-18.54c-4.96,11.17-13.8,18.52-29.75,18.52Z"/><path d="m558.69,148.94c-19.43,0-28.65,10.36-33.92,18.9-4.3-11.1-14-18.9-30.28-18.9-17.32,0-26.87,9-31.87,17.48.07-5.17-.12-10.72-.58-14.75h-17.91c.19,8.51.19,16.95.19,25.46v73.19h18.42v-52.7c0-18.81,7.25-33.35,25.83-33.35,17.39,0,21.43,13.15,21.43,24.95v61.1h18.42v-54.09c0-21.29,10.21-31.96,25.9-31.96,17.58,0,21.3,14.25,21.3,25.75v60.3h18.35v-60.95c0-29.15-15.84-40.43-35.29-40.43Z"/><path d="m672.82,148.94c-20.63,0-32.16,9.4-37.95,19.71,0-7.48-.26-14.17-.65-16.99h-18.09c.19,8.19.19,16.44.19,24.62v104.51h18.54v-45.08c5.34,8.43,14.42,17.33,34.85,17.33,26.78,0,49.07-21.54,49.07-53.77,0-28.57-19.39-50.34-45.97-50.34Zm-5.87,88.4c-21.76,0-32.59-15.25-32.59-35.92s10.01-36.9,32.98-36.9,32.33,17.98,32.33,35.52c0,19.75-10.9,37.31-32.72,37.31Z"/><rect x="735.65" y="103.77" width="18.54" height="146.56"/><path d="m821.72,236.09h-.32c-2.95-8.34-14.34-36.03-35.28-84.42h-20.4l45.7,103.15-10.22,25.99h19.48s7.79-20.4,14-35.47l38.65-93.67h-19.26c-18.83,46.38-28.89,74.68-32.35,84.42Z"/><rect x="873.66" y="229.38" width="20.56" height="20.94"/></svg>